<?xml version="1.0" encoding="utf-8"?>
<!-- Generator: Adobe Illustrator 15.0.0, SVG Export Plug-In . SVG Version: 6.00 Build 0)  -->
<!DOCTYPE svg PUBLIC "-//W3C//DTD SVG 1.1//EN" "http://www.w3.org/Graphics/SVG/1.1/DTD/svg11.dtd">
<svg version="1.1" xmlns="http://www.w3.org/2000/svg" xmlns:xlink="http://www.w3.org/1999/xlink" x="0px" y="0px" width="1122px"
	 height="1122px" viewBox="0 0 1122 1122" enable-background="new 0 0 1122 1122" xml:space="preserve">
<g id="BG">
	<rect fill="#FFFFFF" width="1122" height="1122"/>
</g>
<g id="object">
	<g>
		<path fill="#272525" d="M350.897,77.727l-27.225-27.225c-2.732-2.733-7.165-2.733-9.899,0c-2.734,2.733-2.734,7.166,0,9.899
			l22.275,22.275l-22.275,22.275c-2.734,2.733-2.734,7.166,0,9.899c1.367,1.367,3.158,2.05,4.95,2.05s3.583-0.684,4.95-2.05
			l27.225-27.225C353.631,84.892,353.631,80.46,350.897,77.727z"/>
		<path fill="#272525" d="M323.672,77.727l-27.225-27.225c-2.733-2.733-7.166-2.733-9.899,0c-2.734,2.733-2.734,7.166,0,9.899
			l22.275,22.275l-22.275,22.275c-2.734,2.733-2.734,7.166,0,9.899c1.367,1.367,3.158,2.05,4.95,2.05s3.583-0.684,4.95-2.05
			l27.225-27.225C326.406,84.893,326.406,80.46,323.672,77.727z"/>
		<path fill="#272525" d="M296.447,77.727l-27.225-27.225c-2.734-2.733-7.166-2.733-9.9,0c-2.733,2.733-2.733,7.166,0,9.899
			l22.276,22.275l-22.276,22.275c-2.733,2.733-2.733,7.166,0,9.899c1.367,1.367,3.159,2.05,4.95,2.05s3.583-0.684,4.95-2.05
			l27.225-27.225C299.181,84.893,299.181,80.46,296.447,77.727z"/>
	</g>
	<path fill="#272525" d="M183.046,75.605l-32.082-32.082c-3.905-3.905-10.237-3.905-14.142,0s-3.905,10.237,0,14.143l15.01,15.011
		H65.67c-5.522,0-10,4.477-10,10c0,5.522,4.478,10,10,10h86.164l-15.011,15.011c-3.905,3.905-3.905,10.236,0,14.142
		c1.952,1.952,4.512,2.929,7.071,2.929c2.559,0,5.118-0.977,7.071-2.929l32.082-32.082C186.952,85.842,186.952,79.51,183.046,75.605
		z"/>
	<g>
		<path fill="#272525" d="M531.565,79.14l-40.108-40.108c-1.953-1.952-5.118-1.952-7.071,0c-1.952,1.953-1.952,5.119,0,7.071
			l16.557,16.557H423.84c-1.656,0-3,1.343-3,3c0,1.657,1.344,3,3,3h83.103l9.016,9.016H407.822c-2.762,0-5,2.239-5,5s2.238,5,5,5
			h108.136l-9.016,9.016H423.84c-1.656,0-3,1.343-3,3s1.344,3,3,3h77.103l-16.557,16.557c-1.952,1.953-1.952,5.119,0,7.071
			c0.977,0.976,2.256,1.464,3.536,1.464c1.279,0,2.559-0.488,3.535-1.464l40.108-40.109
			C533.519,84.259,533.519,81.093,531.565,79.14z"/>
		<path fill="#272525" d="M558.194,79.14l-32.168-32.168c-1.953-1.952-5.118-1.952-7.071,0c-1.953,1.953-1.953,5.119,0,7.071
			l28.634,28.633l-28.634,28.633c-1.953,1.953-1.953,5.119,0,7.071c0.977,0.976,2.256,1.464,3.536,1.464
			c1.279,0,2.559-0.488,3.535-1.464l32.168-32.169C560.147,84.259,560.147,81.093,558.194,79.14z"/>
	</g>
	<g>
		<circle fill="#272525" cx="659.726" cy="82.676" r="45.395"/>
		<path fill="#FFFFFF" d="M686.495,76.312l-13.056-13.057c-2.573-2.573-6.444-3.344-9.809-1.951
			c-3.363,1.393-5.556,4.675-5.556,8.315v4.057h-18.754c-4.971,0-9,4.029-9,9s4.029,9,9,9h18.754v4.057
			c0,3.64,2.192,6.922,5.556,8.315c1.114,0.461,2.283,0.685,3.442,0.685c2.342,0,4.645-0.915,6.366-2.636l13.056-13.057
			C690.01,85.524,690.01,79.827,686.495,76.312z"/>
	</g>
	<path fill="#272525" d="M884.008,78.798l-32.169-26.169c-1.497-1.218-3.562-1.467-5.303-0.636
		c-1.742,0.829-2.853,2.585-2.853,4.515v21.169h-46.232c-2.762,0-5,2.238-5,5c0,2.761,2.238,5,5,5h46.232v21.169
		c0,1.929,1.11,3.686,2.853,4.515c0.684,0.326,1.417,0.485,2.146,0.485c1.129,0,2.247-0.382,3.156-1.122l32.169-26.168
		c1.167-0.95,1.845-2.375,1.845-3.879C885.853,81.172,885.175,79.748,884.008,78.798z M853.684,67.02l13.1,10.657h-13.1V67.02z
		 M853.684,87.677h13.1l-13.1,10.656V87.677z"/>
	<g>
		<path fill="#272525" d="M1070.872,78.797l-32.169-26.169c-2.143-1.742-5.291-1.418-7.034,0.723
			c-1.742,2.143-1.419,5.292,0.724,7.035l21.255,17.29h-50.27c-2.762,0-5,2.238-5,5c0,2.761,2.238,5,5,5h50.27l-21.255,17.29
			c-2.143,1.742-2.466,4.892-0.724,7.034c0.988,1.215,2.429,1.845,3.882,1.845c1.109,0,2.225-0.368,3.152-1.121l32.169-26.169
			c1.167-0.95,1.845-2.375,1.845-3.879S1072.039,79.747,1070.872,78.797z"/>
		<path fill="#272525" d="M990.726,77.676h-9.436c-2.762,0-5,2.239-5,5c0,2.761,2.238,5,5,5h9.436c2.762,0,5-2.239,5-5
			C995.726,79.915,993.487,77.676,990.726,77.676z"/>
		<path fill="#272525" d="M968.195,77.676h-9.436c-2.762,0-5,2.239-5,5c0,2.761,2.238,5,5,5h9.436c2.762,0,5-2.239,5-5
			C973.195,79.915,970.957,77.676,968.195,77.676z"/>
	</g>
	<g>
		<path fill="#272525" d="M191.74,196.943l-13.035-13.035c-0.571-0.572-1.433-0.744-2.179-0.434
			c-0.748,0.31-1.235,1.039-1.235,1.848v9.535h-27.878c-0.85,0-1.671,0.309-2.31,0.87l-36.013,31.638H52.819
			c-1.933,0-3.5,1.567-3.5,3.5s1.567,3.5,3.5,3.5h57.59c0.85,0,1.671-0.31,2.31-0.871l36.013-31.638h26.559v9.534
			c0,0.81,0.487,1.539,1.235,1.848c0.247,0.103,0.507,0.152,0.765,0.152c0.521,0,1.032-0.203,1.415-0.585l13.035-13.035
			C192.521,198.991,192.521,197.724,191.74,196.943z"/>
		<path fill="#272525" d="M191.74,231.515l-13.035-13.035c-0.571-0.572-1.433-0.743-2.179-0.434
			c-0.748,0.31-1.235,1.039-1.235,1.847v9.536h-26.559l-36.013-31.639c-0.638-0.561-1.459-0.87-2.31-0.87h-57.59
			c-1.933,0-3.5,1.567-3.5,3.5s1.567,3.5,3.5,3.5h56.271l36.013,31.638c0.639,0.561,1.46,0.871,2.31,0.871h27.878v9.535
			c0,0.809,0.487,1.538,1.235,1.848c0.247,0.102,0.507,0.152,0.765,0.152c0.521,0,1.032-0.203,1.415-0.586l13.035-13.035
			C192.521,233.563,192.521,232.296,191.74,231.515z"/>
	</g>
	<path fill="#272525" d="M323.514,195.083h-8.061v-6.633c0-1.213-0.731-2.307-1.852-2.771c-1.122-0.464-2.411-0.209-3.27,0.65
		l-10.132,10.132c-1.171,1.172-1.171,3.071,0,4.243l10.132,10.132c0.574,0.574,1.341,0.879,2.122,0.879
		c0.387,0,0.776-0.075,1.147-0.229c1.121-0.464,1.852-1.558,1.852-2.771v-6.632h8.061c10.133,0,18.376,8.244,18.376,18.376
		s-8.244,18.376-18.376,18.376h-58.685c-1.933,0-3.5,1.567-3.5,3.5s1.567,3.5,3.5,3.5h58.685c13.993,0,25.376-11.384,25.376-25.376
		S337.506,195.083,323.514,195.083z"/>
	<g>
		<polygon fill="#272525" points="457.943,191.967 447.601,191.967 458.711,215.643 447.601,239.319 457.943,239.319 
			469.055,215.643 		"/>
		<polygon fill="#272525" points="437.194,191.967 426.852,191.967 437.962,215.643 426.852,239.319 437.194,239.319 
			448.306,215.643 		"/>
		<polygon fill="#272525" points="524.519,191.967 468.393,191.967 479.503,215.643 468.393,239.319 524.519,239.319 
			535.63,215.643 		"/>
	</g>
	<g>
		<polygon fill="#272525" points="625.808,187.403 620.72,187.403 641.461,215.643 620.72,243.883 625.808,243.883 646.549,215.643 
					"/>
		<polygon fill="#272525" points="638.854,187.403 633.766,187.403 654.507,215.643 633.766,243.883 638.854,243.883 
			659.595,215.643 		"/>
		<polygon fill="#272525" points="651.899,187.403 646.812,187.403 667.553,215.643 646.812,243.883 651.899,243.883 
			672.641,215.643 		"/>
		<polygon fill="#272525" points="664.945,187.403 659.857,187.403 680.599,215.643 659.857,243.883 664.945,243.883 
			685.686,215.643 		"/>
		<polygon fill="#272525" points="677.99,187.403 672.902,187.403 693.645,215.643 672.902,243.883 677.99,243.883 698.732,215.643 
					"/>
	</g>
	<g>
		<path fill="#272525" d="M860.954,184.965H817.35c-4.902,0-8.876,3.974-8.876,8.876v43.604c0,4.902,3.974,8.876,8.876,8.876h43.604
			c4.902,0,8.876-3.974,8.876-8.876v-43.604C869.83,188.939,865.856,184.965,860.954,184.965z"/>
		<path fill="#FFFFFF" d="M857.783,213.655l-15.027-12.607c-1.644-1.25-4.009-0.078-4.009,1.988v4.033h-17.362
			c-1.021,0-1.85,0.828-1.85,1.849v13.45c0,1.021,0.828,1.849,1.85,1.849h17.362v4.033c0,2.066,2.365,3.238,4.009,1.988
			l15.027-12.607C859.098,216.631,859.098,214.654,857.783,213.655z"/>
	</g>
	<polygon fill="#000100" points="1066.294,215.643 1048.396,197.745 1048.396,209.941 960.182,209.941 960.182,221.345 
		1048.396,221.345 1048.396,233.541 	"/>
	<g>
		<polygon fill="#000100" points="161.872,307.611 161.872,361.159 188.646,334.385 		"/>
		<polygon fill="#000100" points="140.381,351.93 157.926,334.385 140.381,316.841 		"/>
		<polygon fill="#000100" points="126.488,329.577 53,329.577 53,339.193 126.489,339.193 126.489,344.333 136.436,334.385 
			126.488,324.438 		"/>
	</g>
	<g>
		<g>
			<path fill="#000100" d="M1047.792,353.49v-12.903h-88.214v-12.403h88.214V315.28l19.105,19.105L1047.792,353.49z
				 M960.578,339.587h88.214v11.49l16.691-16.691l-16.691-16.691v11.49h-88.214V339.587z"/>
		</g>
	</g>
	<g>
		<path fill="#272525" d="M308.572,309.527h-18.97v-3.313c0-1.213-0.731-2.307-1.852-2.771c-1.121-0.466-2.412-0.208-3.269,0.65
			l-6.813,6.813c-1.172,1.171-1.172,3.07,0,4.242l6.813,6.813c0.574,0.574,1.341,0.879,2.122,0.879c0.387,0,0.776-0.075,1.147-0.229
			c1.121-0.464,1.852-1.558,1.852-2.771v-3.313h18.97c9.847,0,17.858,8.011,17.858,17.858s-8.011,17.858-17.858,17.858h-18.97
			v-3.313c0-1.213-0.731-2.307-1.852-2.771c-1.121-0.465-2.412-0.209-3.269,0.65l-6.813,6.812c-1.172,1.172-1.172,3.071,0,4.243
			l6.813,6.813c0.574,0.574,1.341,0.879,2.122,0.879c0.387,0,0.776-0.075,1.147-0.229c1.121-0.464,1.852-1.558,1.852-2.771v-3.313
			h18.97c13.707,0,24.858-11.151,24.858-24.858S322.279,309.527,308.572,309.527z"/>
	</g>
	<g>
		<g>
			<path fill="#272525" d="M535.624,313.027l-14.055-14.055v10.555h-18.97c-13.707,0-24.858,11.151-24.858,24.858
				c0,9.847-8.011,17.858-17.858,17.858h-18.97v-10.556l-14.055,14.056l14.055,14.056v-10.556h18.97
				c13.707,0,24.858-11.151,24.858-24.858c0-9.847,8.011-17.858,17.858-17.858h18.97v10.555L535.624,313.027z"/>
		</g>
		<g>
			<path fill="#272525" d="M535.624,355.744l-14.055-14.055v10.555h-18.97c-9.847,0-17.858-8.011-17.858-17.858
				c0-13.707-11.151-24.858-24.858-24.858h-18.97v-10.556l-14.055,14.056l14.055,14.056v-10.556h18.97
				c9.848,0,17.858,8.011,17.858,17.858c0,13.707,11.151,24.858,24.858,24.858h18.97v10.555L535.624,355.744z"/>
		</g>
	</g>
	<polygon fill="#FFFFFF" points="1258.804,306.948 1248.196,317.554 1267.475,336.833 1189.931,336.833 1189.931,351.833 
		1267.475,351.833 1248.196,371.111 1258.804,381.717 1296.188,344.333 	"/>
	<g>
		<path fill="#272525" d="M870.625,334.792c-1.658,0-3,1.343-3,3c0,15.7-12.773,28.472-28.473,28.472
			c-15.701,0-28.473-12.772-28.473-28.472c0-14.687,11.178-26.81,25.473-28.313v3.653c0,1.213,0.73,2.307,1.852,2.771
			c0.371,0.154,0.762,0.229,1.146,0.229c0.781,0,1.549-0.305,2.123-0.879l6.813-6.812c1.172-1.171,1.172-3.071,0-4.242l-6.813-6.813
			c-0.857-0.858-2.146-1.116-3.27-0.65c-1.121,0.464-1.852,1.558-1.852,2.771v3.951c-17.607,1.526-31.473,16.337-31.473,34.334
			c0,19.008,15.465,34.472,34.473,34.472c19.007,0,34.473-15.464,34.473-34.472C873.625,336.135,872.281,334.792,870.625,334.792z"
			/>
	</g>
	<g>
		<rect x="983.911" y="452.936" fill="#000100" width="7.021" height="10.648"/>
		<rect x="971.489" y="452.936" fill="#000100" width="7.022" height="10.648"/>
		<rect x="959.067" y="452.936" fill="#000100" width="7.022" height="10.648"/>
		<polygon fill="#000100" points="1067.409,458.26 1048.063,438.915 1048.063,452.936 996.333,452.936 996.333,463.584 
			1048.063,463.584 1048.063,477.605 		"/>
	</g>
	<g>
		<g>
			<circle fill="#000100" cx="305.109" cy="458.26" r="38.284"/>
		</g>
		<g>
			<polygon fill="#FFFFFF" points="295.678,435.158 295.678,481.361 324.085,458.259 			"/>
		</g>
	</g>
	<g>
		<polygon fill="#000100" points="433.352,427.349 433.352,489.17 490.833,458.259 		"/>
		<polygon fill="#000100" points="452.506,427.349 452.506,432.974 499.527,458.259 452.505,483.545 452.505,489.17 
			509.986,458.259 		"/>
		<polygon fill="#000100" points="471.648,427.349 471.648,432.974 518.67,458.259 471.648,483.545 471.648,489.17 529.129,458.259 
					"/>
	</g>
	<g>
		<polygon fill="#272525" points="867.049,443.202 862.807,447.444 870.621,455.26 850.596,455.26 850.596,461.26 870.621,461.26 
			862.807,469.075 867.049,473.317 882.105,458.26 		"/>
		<polygon fill="#272525" points="827.707,461.26 827.707,455.26 807.682,455.26 815.498,447.444 811.256,443.202 796.197,458.26 
			811.256,473.317 815.498,469.075 807.682,461.26 		"/>
		<polygon fill="#272525" points="842.152,489.729 842.152,469.704 836.152,469.704 836.152,489.729 828.336,481.914 
			824.094,486.156 839.152,501.214 854.209,486.156 849.967,481.914 		"/>
		<polygon fill="#272525" points="836.152,426.79 836.152,446.815 842.152,446.815 842.152,426.79 849.967,434.605 854.209,430.363 
			839.152,415.305 824.094,430.363 828.336,434.605 		"/>
	</g>
	<g>
		<path fill="#272525" d="M124.305,444.989l-21.952-17.858c-1.498-1.22-3.704-0.995-4.923,0.506
			c-1.22,1.499-0.993,3.704,0.506,4.923l14.313,11.643H70.541c-1.933,0-3.5,1.567-3.5,3.5c0,1.934,1.567,3.5,3.5,3.5h41.707
			l-14.312,11.643c-1.5,1.22-1.727,3.424-0.506,4.924c0.691,0.85,1.7,1.292,2.717,1.292c0.776,0,1.558-0.257,2.207-0.785
			l21.952-17.858c0.817-0.665,1.292-1.662,1.292-2.715C125.597,446.651,125.123,445.654,124.305,444.989z"/>
		<path fill="#272525" d="M171.104,465.316h-41.707l14.312-11.643c1.5-1.22,1.727-3.424,0.507-4.924
			c-1.22-1.5-3.426-1.727-4.924-0.507l-21.953,17.858c-0.817,0.665-1.292,1.662-1.292,2.715s0.474,2.05,1.292,2.715l21.953,17.858
			c0.649,0.528,1.43,0.785,2.207,0.785c1.017,0,2.025-0.441,2.717-1.292c1.22-1.5,0.993-3.704-0.507-4.924l-14.312-11.643h41.707
			c1.933,0,3.5-1.567,3.5-3.5S173.037,465.316,171.104,465.316z"/>
	</g>
	<path fill="#272525" d="M193.832,563.08l-6.813-6.813c-1.126-1.126-3.117-1.126-4.243,0l-6.813,6.813
		c-0.858,0.857-1.114,2.147-0.65,3.269c0.464,1.122,1.558,1.853,2.771,1.853h3.313v9.422c0,9.846-8.011,17.857-17.858,17.857
		s-17.858-8.012-17.858-17.857v-9.92c0-13.708-11.151-24.859-24.858-24.859s-24.858,11.152-24.858,24.859v9.92
		c0,9.846-8.011,17.857-17.858,17.857c-9.847,0-17.858-8.012-17.858-17.857v-9.422h3.313c1.213,0,2.307-0.73,2.771-1.853
		c0.464-1.121,0.208-2.411-0.65-3.269l-6.813-6.813c-1.126-1.126-3.117-1.126-4.243,0l-6.813,6.813
		c-0.858,0.857-1.114,2.147-0.65,3.269c0.464,1.122,1.558,1.853,2.771,1.853h3.313v9.422c0,13.707,11.151,24.857,24.858,24.857
		c13.707,0,24.858-11.15,24.858-24.857v-9.92c0-9.848,8.011-17.859,17.858-17.859s17.858,8.011,17.858,17.859v9.92
		c0,13.707,11.151,24.857,24.858,24.857s24.858-11.15,24.858-24.857v-9.422h3.313c1.213,0,2.307-0.73,2.771-1.853
		C194.946,565.228,194.689,563.938,193.832,563.08z"/>
	<g>
		<polygon fill="#272525" points="335.6,549.284 328.528,556.355 339.836,567.662 336.808,567.662 336.808,577.662 339.836,577.662 
			328.528,588.971 335.6,596.041 358.979,572.662 		"/>
		<rect x="322.546" y="567.662" fill="#272525" width="9.005" height="10"/>
		<rect x="308.285" y="567.662" fill="#272525" width="9.005" height="10"/>
		<rect x="294.024" y="567.662" fill="#272525" width="9.005" height="10"/>
		<rect x="279.763" y="567.662" fill="#272525" width="9.005" height="10"/>
		<rect x="265.501" y="567.662" fill="#272525" width="9.005" height="10"/>
		<rect x="251.24" y="567.664" fill="#272525" width="9.005" height="10"/>
	</g>
	<g>
		<path fill="#000100" d="M549.846,585.568l-26.788-17.877v15.109h-87.019v5.535h87.019v15.109L549.846,585.568z M528.058,577.039
			l12.78,8.529l-12.78,8.529V577.039z"/>
		<path fill="#000100" d="M526.441,559.756l-26.788-17.876v15.109h-87.018v5.535h87.018v15.109L526.441,559.756z M504.653,551.227
			l12.78,8.529l-12.78,8.529V551.227z"/>
	</g>
	<polygon fill="#000100" points="718.336,572.662 672.244,550.698 672.243,569.178 601.116,561.049 601.116,584.275 
		672.243,576.146 672.243,594.627 	"/>
	<g>
		<rect x="790.466" y="569.574" fill="#000100" width="97.372" height="1.95"/>
		<path fill="#000100" d="M864.07,551.5v16.799h22.962L864.07,551.5z M866.07,555.441l14.841,10.858H866.07V555.441z"/>
		<rect x="790.466" y="573.801" fill="#000100" width="97.372" height="1.949"/>
		<path fill="#000100" d="M864.07,593.824l22.962-16.797H864.07V593.824z M866.07,579.027h14.841l-14.841,10.855V579.027z"/>
	</g>
	<g>
		<g>
			<path fill="#272525" d="M178.436,655.791H99.009c-4.902,0-8.876,3.975-8.876,8.877v43.604c0,4.902,3.974,8.876,8.876,8.876
				h79.427c4.902,0,8.876-3.974,8.876-8.876v-43.604C187.312,659.766,183.338,655.791,178.436,655.791z"/>
		</g>
		<g>
			<polygon fill="#FFFFFF" points="175.892,686.469 157.994,668.571 157.994,680.768 54.833,680.768 54.833,692.171 
				157.993,692.171 157.993,704.367 			"/>
			<path fill="#272525" d="M157.494,705.574v-12.903H54.333v-12.403h103.16v-12.903l19.105,19.104L157.494,705.574z M55.333,691.671
				h103.16v11.489l16.691-16.691l-16.691-16.69v11.489H55.333V691.671z"/>
		</g>
	</g>
	<g>
		<path fill="#272525" d="M255.355,674.656c-1.941,0-3.521,1.579-3.521,3.521s1.579,3.521,3.521,3.521s3.521-1.579,3.521-3.521
			S257.297,674.656,255.355,674.656z"/>
		<path fill="#272525" d="M263.648,674.656c-1.941,0-3.521,1.579-3.521,3.521s1.58,3.521,3.521,3.521s3.521-1.579,3.521-3.521
			S265.589,674.656,263.648,674.656z"/>
		<path fill="#272525" d="M271.94,674.656c-1.941,0-3.521,1.579-3.521,3.521s1.579,3.521,3.521,3.521s3.521-1.579,3.521-3.521
			S273.881,674.656,271.94,674.656z"/>
		<path fill="#272525" d="M280.232,674.656c-1.941,0-3.521,1.579-3.521,3.521s1.579,3.521,3.521,3.521s3.521-1.579,3.521-3.521
			S282.174,674.656,280.232,674.656z"/>
		<path fill="#272525" d="M288.525,674.656c-1.941,0-3.521,1.579-3.521,3.521s1.579,3.521,3.521,3.521s3.521-1.579,3.521-3.521
			S290.466,674.656,288.525,674.656z"/>
		<path fill="#272525" d="M296.817,674.656c-1.941,0-3.521,1.579-3.521,3.521s1.579,3.521,3.521,3.521s3.521-1.579,3.521-3.521
			S298.759,674.656,296.817,674.656z"/>
		<path fill="#272525" d="M305.109,674.656c-1.941,0-3.521,1.579-3.521,3.521s1.579,3.521,3.521,3.521s3.521-1.579,3.521-3.521
			S307.051,674.656,305.109,674.656z"/>
		<path fill="#272525" d="M255.355,682.948c-1.941,0-3.521,1.579-3.521,3.521s1.579,3.521,3.521,3.521s3.521-1.58,3.521-3.521
			S257.297,682.948,255.355,682.948z"/>
		<path fill="#272525" d="M263.648,682.948c-1.941,0-3.521,1.579-3.521,3.521s1.58,3.521,3.521,3.521s3.521-1.58,3.521-3.521
			S265.589,682.948,263.648,682.948z"/>
		<path fill="#272525" d="M271.94,682.948c-1.941,0-3.521,1.579-3.521,3.521s1.579,3.521,3.521,3.521s3.521-1.58,3.521-3.521
			S273.881,682.948,271.94,682.948z"/>
		<path fill="#272525" d="M280.232,682.948c-1.941,0-3.521,1.579-3.521,3.521s1.579,3.521,3.521,3.521s3.521-1.58,3.521-3.521
			S282.174,682.948,280.232,682.948z"/>
		<path fill="#272525" d="M288.525,682.948c-1.941,0-3.521,1.579-3.521,3.521s1.579,3.521,3.521,3.521s3.521-1.58,3.521-3.521
			S290.466,682.948,288.525,682.948z"/>
		<path fill="#272525" d="M296.817,682.948c-1.941,0-3.521,1.579-3.521,3.521s1.579,3.521,3.521,3.521s3.521-1.58,3.521-3.521
			S298.759,682.948,296.817,682.948z"/>
		<path fill="#272525" d="M305.109,682.948c-1.941,0-3.521,1.579-3.521,3.521s1.579,3.521,3.521,3.521s3.521-1.58,3.521-3.521
			S307.051,682.948,305.109,682.948z"/>
		<path fill="#272525" d="M255.355,691.241c-1.941,0-3.521,1.579-3.521,3.521s1.579,3.521,3.521,3.521s3.521-1.579,3.521-3.521
			S257.297,691.241,255.355,691.241z"/>
		<path fill="#272525" d="M263.648,691.241c-1.941,0-3.521,1.579-3.521,3.521s1.58,3.521,3.521,3.521s3.521-1.579,3.521-3.521
			S265.589,691.241,263.648,691.241z"/>
		<path fill="#272525" d="M271.94,691.241c-1.941,0-3.521,1.579-3.521,3.521s1.579,3.521,3.521,3.521s3.521-1.579,3.521-3.521
			S273.881,691.241,271.94,691.241z"/>
		<path fill="#272525" d="M280.232,691.241c-1.941,0-3.521,1.579-3.521,3.521s1.579,3.521,3.521,3.521s3.521-1.579,3.521-3.521
			S282.174,691.241,280.232,691.241z"/>
		<path fill="#272525" d="M288.525,691.241c-1.941,0-3.521,1.579-3.521,3.521s1.579,3.521,3.521,3.521s3.521-1.579,3.521-3.521
			S290.466,691.241,288.525,691.241z"/>
		<path fill="#272525" d="M296.817,691.241c-1.941,0-3.521,1.579-3.521,3.521s1.579,3.521,3.521,3.521s3.521-1.579,3.521-3.521
			S298.759,691.241,296.817,691.241z"/>
		<path fill="#272525" d="M305.109,691.241c-1.941,0-3.521,1.579-3.521,3.521s1.579,3.521,3.521,3.521s3.521-1.579,3.521-3.521
			S307.051,691.241,305.109,691.241z"/>
		<path fill="#272525" d="M313.402,658.071c-1.941,0-3.521,1.579-3.521,3.521s1.579,3.521,3.521,3.521s3.521-1.579,3.521-3.521
			S315.343,658.071,313.402,658.071z"/>
		<path fill="#272525" d="M321.694,658.071c-1.941,0-3.521,1.579-3.521,3.521s1.579,3.521,3.521,3.521s3.521-1.579,3.521-3.521
			S323.636,658.071,321.694,658.071z"/>
		<path fill="#272525" d="M329.987,658.071c-1.941,0-3.521,1.579-3.521,3.521s1.579,3.521,3.521,3.521s3.521-1.579,3.521-3.521
			S331.928,658.071,329.987,658.071z"/>
		<path fill="#272525" d="M321.694,666.364c-1.941,0-3.521,1.579-3.521,3.521s1.579,3.521,3.521,3.521s3.521-1.579,3.521-3.521
			S323.636,666.364,321.694,666.364z"/>
		<path fill="#272525" d="M329.987,666.364c-1.941,0-3.521,1.579-3.521,3.521s1.579,3.521,3.521,3.521s3.521-1.579,3.521-3.521
			S331.928,666.364,329.987,666.364z"/>
		<path fill="#272525" d="M338.279,666.364c-1.941,0-3.521,1.579-3.521,3.521s1.579,3.521,3.521,3.521s3.521-1.579,3.521-3.521
			S340.221,666.364,338.279,666.364z"/>
		<path fill="#272525" d="M313.402,674.656c-1.941,0-3.521,1.579-3.521,3.521s1.579,3.521,3.521,3.521s3.521-1.579,3.521-3.521
			S315.343,674.656,313.402,674.656z"/>
		<path fill="#272525" d="M321.694,674.656c-1.941,0-3.521,1.579-3.521,3.521s1.579,3.521,3.521,3.521s3.521-1.579,3.521-3.521
			S323.636,674.656,321.694,674.656z"/>
		<path fill="#272525" d="M329.987,674.656c-1.941,0-3.521,1.579-3.521,3.521s1.579,3.521,3.521,3.521s3.521-1.579,3.521-3.521
			S331.928,674.656,329.987,674.656z"/>
		<path fill="#272525" d="M338.279,674.656c-1.941,0-3.521,1.579-3.521,3.521s1.579,3.521,3.521,3.521s3.521-1.579,3.521-3.521
			S340.221,674.656,338.279,674.656z"/>
		<path fill="#272525" d="M346.571,674.656c-1.941,0-3.521,1.579-3.521,3.521s1.579,3.521,3.521,3.521s3.521-1.579,3.521-3.521
			S348.513,674.656,346.571,674.656z"/>
		<path fill="#272525" d="M313.402,682.948c-1.941,0-3.521,1.579-3.521,3.521s1.579,3.521,3.521,3.521s3.521-1.58,3.521-3.521
			S315.343,682.948,313.402,682.948z"/>
		<path fill="#272525" d="M321.694,682.948c-1.941,0-3.521,1.579-3.521,3.521s1.579,3.521,3.521,3.521s3.521-1.58,3.521-3.521
			S323.636,682.948,321.694,682.948z"/>
		<path fill="#272525" d="M329.987,682.948c-1.941,0-3.521,1.579-3.521,3.521s1.579,3.521,3.521,3.521s3.521-1.58,3.521-3.521
			S331.928,682.948,329.987,682.948z"/>
		<path fill="#272525" d="M338.279,682.948c-1.941,0-3.521,1.579-3.521,3.521s1.579,3.521,3.521,3.521s3.521-1.58,3.521-3.521
			S340.221,682.948,338.279,682.948z"/>
		<path fill="#272525" d="M346.571,682.948c-1.941,0-3.521,1.579-3.521,3.521s1.579,3.521,3.521,3.521s3.521-1.58,3.521-3.521
			S348.513,682.948,346.571,682.948z"/>
		<path fill="#272525" d="M354.864,682.948c-1.941,0-3.521,1.579-3.521,3.521s1.579,3.521,3.521,3.521s3.521-1.58,3.521-3.521
			S356.805,682.948,354.864,682.948z"/>
		<path fill="#272525" d="M313.402,691.241c-1.941,0-3.521,1.579-3.521,3.521s1.579,3.521,3.521,3.521s3.521-1.579,3.521-3.521
			S315.343,691.241,313.402,691.241z"/>
		<path fill="#272525" d="M321.694,691.241c-1.941,0-3.521,1.579-3.521,3.521s1.579,3.521,3.521,3.521s3.521-1.579,3.521-3.521
			S323.636,691.241,321.694,691.241z"/>
		<path fill="#272525" d="M329.987,691.241c-1.941,0-3.521,1.579-3.521,3.521s1.579,3.521,3.521,3.521s3.521-1.579,3.521-3.521
			S331.928,691.241,329.987,691.241z"/>
		<path fill="#272525" d="M338.279,691.241c-1.941,0-3.521,1.579-3.521,3.521s1.579,3.521,3.521,3.521s3.521-1.579,3.521-3.521
			S340.221,691.241,338.279,691.241z"/>
		<path fill="#272525" d="M346.571,691.241c-1.941,0-3.521,1.579-3.521,3.521s1.579,3.521,3.521,3.521s3.521-1.579,3.521-3.521
			S348.513,691.241,346.571,691.241z"/>
		<path fill="#272525" d="M321.694,699.533c-1.941,0-3.521,1.579-3.521,3.521s1.579,3.521,3.521,3.521s3.521-1.579,3.521-3.521
			S323.636,699.533,321.694,699.533z"/>
		<path fill="#272525" d="M329.987,699.533c-1.941,0-3.521,1.579-3.521,3.521s1.579,3.521,3.521,3.521s3.521-1.579,3.521-3.521
			S331.928,699.533,329.987,699.533z"/>
		<path fill="#272525" d="M338.279,699.533c-1.941,0-3.521,1.579-3.521,3.521s1.579,3.521,3.521,3.521s3.521-1.579,3.521-3.521
			S340.221,699.533,338.279,699.533z"/>
		<path fill="#272525" d="M313.402,707.826c-1.941,0-3.521,1.579-3.521,3.521s1.579,3.521,3.521,3.521s3.521-1.579,3.521-3.521
			S315.343,707.826,313.402,707.826z"/>
		<path fill="#272525" d="M321.694,707.826c-1.941,0-3.521,1.579-3.521,3.521s1.579,3.521,3.521,3.521s3.521-1.579,3.521-3.521
			S323.636,707.826,321.694,707.826z"/>
		<path fill="#272525" d="M329.987,707.826c-1.941,0-3.521,1.579-3.521,3.521s1.579,3.521,3.521,3.521s3.521-1.579,3.521-3.521
			S331.928,707.826,329.987,707.826z"/>
	</g>
	<g>
		<circle fill="#272525" cx="961.538" cy="572.918" r="3.432"/>
		<circle fill="#272525" cx="972.826" cy="572.918" r="3.432"/>
		<circle fill="#272525" cx="984.114" cy="572.918" r="3.432"/>
		<circle fill="#272525" cx="995.402" cy="572.918" r="3.432"/>
		<circle fill="#272525" cx="1006.69" cy="572.918" r="3.432"/>
		<circle fill="#272525" cx="1017.979" cy="572.918" r="3.432"/>
		<circle fill="#272525" cx="1029.267" cy="572.918" r="3.432"/>
		<circle fill="#272525" cx="1040.555" cy="572.918" r="3.432"/>
		<circle fill="#272525" cx="1051.843" cy="572.918" r="3.431"/>
		<polygon fill="#272525" points="1047.112,551.405 1044.284,554.233 1062.713,572.662 1044.284,591.092 1047.112,593.92 
			1068.369,572.662 		"/>
	</g>
	<polygon fill="#000100" points="539.117,686.469 497.311,659.072 497.311,674.327 423.363,674.327 423.363,698.611 
		497.311,698.611 497.311,713.867 	"/>
	<polygon fill="#000100" points="721.988,681.591 711.604,671.205 711.604,679.531 701.162,679.531 677.654,697.732 
		597.463,697.732 597.463,701.732 679.021,701.732 702.529,683.531 711.604,683.531 711.604,691.977 	"/>
	<path fill="#272525" d="M887.867,684.348l-19.223-19.222c-0.858-0.857-2.146-1.117-3.27-0.65c-1.121,0.464-1.852,1.559-1.852,2.771
		v15.722h-58.564c-4.633,0-8.4-3.769-8.4-8.4c0-4.633,3.768-8.401,8.4-8.401c1.934,0,3.5-1.567,3.5-3.5s-1.566-3.5-3.5-3.5
		c-8.492,0-15.4,6.909-15.4,15.401c0,4.79,2.198,9.074,5.639,11.9c-3.44,2.827-5.639,7.112-5.639,11.901
		c0,8.492,6.908,15.401,15.4,15.401c1.934,0,3.5-1.567,3.5-3.5s-1.566-3.5-3.5-3.5c-4.633,0-8.4-3.769-8.4-8.401
		s3.768-8.401,8.4-8.401h58.564v15.723c0,1.214,0.73,2.308,1.852,2.771c0.37,0.154,0.762,0.229,1.146,0.229
		c0.781,0,1.549-0.305,2.123-0.879l19.223-19.223c0.563-0.563,0.878-1.325,0.878-2.121S888.43,684.91,887.867,684.348z"/>
	<g>
		<path fill="#272525" d="M456.883,773.747c-2.592,0-4.702,2.109-4.702,4.702c0,2.592,2.109,4.701,4.702,4.701
			c2.593,0,4.702-2.109,4.702-4.701C461.585,775.856,459.476,773.747,456.883,773.747z"/>
		<path fill="#272525" d="M469.062,773.747c-2.592,0-4.702,2.109-4.702,4.702c0,2.592,2.109,4.701,4.702,4.701
			c2.593,0,4.702-2.109,4.702-4.701C473.764,775.856,471.655,773.747,469.062,773.747z"/>
		<path fill="#272525" d="M456.883,785.926c-2.592,0-4.702,2.109-4.702,4.702c0,2.592,2.109,4.701,4.702,4.701
			c2.593,0,4.702-2.109,4.702-4.701C461.585,788.035,459.476,785.926,456.883,785.926z"/>
		<path fill="#272525" d="M469.062,785.926c-2.592,0-4.702,2.109-4.702,4.702c0,2.592,2.109,4.701,4.702,4.701
			c2.593,0,4.702-2.109,4.702-4.701C473.764,788.035,471.655,785.926,469.062,785.926z"/>
		<path fill="#272525" d="M481.24,785.926c-2.592,0-4.701,2.109-4.701,4.702c0,2.592,2.109,4.701,4.701,4.701
			c2.593,0,4.702-2.109,4.702-4.701C485.942,788.035,483.833,785.926,481.24,785.926z"/>
		<path fill="#272525" d="M456.883,798.104c-2.592,0-4.702,2.109-4.702,4.702c0,2.592,2.109,4.701,4.702,4.701
			c2.593,0,4.702-2.109,4.702-4.701C461.585,800.214,459.476,798.104,456.883,798.104z"/>
		<path fill="#272525" d="M469.062,798.104c-2.592,0-4.702,2.109-4.702,4.702c0,2.592,2.109,4.701,4.702,4.701
			c2.593,0,4.702-2.109,4.702-4.701C473.764,800.214,471.655,798.104,469.062,798.104z"/>
		<path fill="#272525" d="M481.24,798.104c-2.592,0-4.701,2.109-4.701,4.702c0,2.592,2.109,4.701,4.701,4.701
			c2.593,0,4.702-2.109,4.702-4.701C485.942,800.214,483.833,798.104,481.24,798.104z"/>
		<path fill="#272525" d="M493.419,798.104c-2.592,0-4.702,2.109-4.702,4.702c0,2.592,2.109,4.701,4.702,4.701
			c2.593,0,4.702-2.109,4.702-4.701C498.121,800.214,496.012,798.104,493.419,798.104z"/>
		<path fill="#272525" d="M456.883,810.283c-2.592,0-4.702,2.109-4.702,4.702s2.109,4.702,4.702,4.702
			c2.593,0,4.702-2.109,4.702-4.702S459.476,810.283,456.883,810.283z"/>
		<path fill="#272525" d="M469.062,810.283c-2.592,0-4.702,2.109-4.702,4.702s2.109,4.702,4.702,4.702
			c2.593,0,4.702-2.109,4.702-4.702S471.655,810.283,469.062,810.283z"/>
		<path fill="#272525" d="M481.24,810.283c-2.592,0-4.701,2.109-4.701,4.702s2.109,4.702,4.701,4.702
			c2.593,0,4.702-2.109,4.702-4.702S483.833,810.283,481.24,810.283z"/>
		<path fill="#272525" d="M493.419,810.283c-2.592,0-4.702,2.109-4.702,4.702s2.109,4.702,4.702,4.702
			c2.593,0,4.702-2.109,4.702-4.702S496.012,810.283,493.419,810.283z"/>
		<path fill="#272525" d="M505.599,810.283c-2.593,0-4.702,2.109-4.702,4.702s2.109,4.702,4.702,4.702
			c2.592,0,4.701-2.109,4.701-4.702S508.191,810.283,505.599,810.283z"/>
		<path fill="#272525" d="M456.883,822.462c-2.592,0-4.702,2.109-4.702,4.702s2.109,4.702,4.702,4.702
			c2.593,0,4.702-2.109,4.702-4.702S459.476,822.462,456.883,822.462z"/>
		<path fill="#272525" d="M469.062,822.462c-2.592,0-4.702,2.109-4.702,4.702s2.109,4.702,4.702,4.702
			c2.593,0,4.702-2.109,4.702-4.702S471.655,822.462,469.062,822.462z"/>
		<path fill="#272525" d="M481.24,822.462c-2.592,0-4.701,2.109-4.701,4.702s2.109,4.702,4.701,4.702
			c2.593,0,4.702-2.109,4.702-4.702S483.833,822.462,481.24,822.462z"/>
		<path fill="#272525" d="M493.419,822.462c-2.592,0-4.702,2.109-4.702,4.702s2.109,4.702,4.702,4.702
			c2.593,0,4.702-2.109,4.702-4.702S496.012,822.462,493.419,822.462z"/>
		<path fill="#272525" d="M456.883,834.641c-2.592,0-4.702,2.109-4.702,4.702s2.109,4.702,4.702,4.702
			c2.593,0,4.702-2.109,4.702-4.702S459.476,834.641,456.883,834.641z"/>
		<path fill="#272525" d="M469.062,834.641c-2.592,0-4.702,2.109-4.702,4.702s2.109,4.702,4.702,4.702
			c2.593,0,4.702-2.109,4.702-4.702S471.655,834.641,469.062,834.641z"/>
		<path fill="#272525" d="M481.24,834.641c-2.592,0-4.701,2.109-4.701,4.702s2.109,4.702,4.701,4.702
			c2.593,0,4.702-2.109,4.702-4.702S483.833,834.641,481.24,834.641z"/>
		<path fill="#272525" d="M456.883,846.819c-2.592,0-4.702,2.109-4.702,4.702s2.109,4.702,4.702,4.702
			c2.593,0,4.702-2.109,4.702-4.702S459.476,846.819,456.883,846.819z"/>
		<path fill="#272525" d="M469.062,846.819c-2.592,0-4.702,2.109-4.702,4.702s2.109,4.702,4.702,4.702
			c2.593,0,4.702-2.109,4.702-4.702S471.655,846.819,469.062,846.819z"/>
	</g>
	<g>
		<polygon fill="#272525" points="1039.588,670.852 1039.588,702.088 1062.308,686.469 		"/>
		<polygon fill="#272525" points="1014.535,702.088 1037.255,686.469 1014.535,670.852 		"/>
		<polygon fill="#272525" points="989.352,702.088 1012.072,686.469 989.352,670.852 		"/>
		<polygon fill="#272525" points="964.168,702.088 986.889,686.469 964.168,670.852 		"/>
	</g>
	<g>
		<path fill="#272525" d="M686.68,845.387v-11.821c0-18.544-15.086-33.63-33.63-33.63s-33.63,15.086-33.63,33.63h7
			c0-14.684,11.946-26.63,26.63-26.63s26.63,11.946,26.63,26.63v11.821h-13.352l16.852,16.854l16.852-16.854H686.68z"/>
		<path fill="#272525" d="M700.031,784.585l-16.852-16.854l-16.852,16.854h13.352v11.821c0,14.684-11.946,26.63-26.63,26.63
			s-26.63-11.946-26.63-26.63h-7c0,18.544,15.086,33.63,33.63,33.63s33.63-15.086,33.63-33.63v-11.821H700.031z"/>
	</g>
	<path fill="#000100" d="M368.192,814.985l-41.964-28.004v19.683h-84.201v4.035h84.201v8.125h-84.201v4.035h84.201v20.13
		L368.192,814.985z M331.228,796.329l27.957,18.656l-27.957,18.656V796.329z"/>
	<polygon fill="#000100" points="183.498,814.985 146.69,790.863 146.69,802.844 58.147,802.844 76.675,814.985 58.147,827.128 
		146.69,827.128 146.69,839.107 	"/>
	<polygon fill="#000100" points="907.879,814.985 877.997,781.149 877.997,793.945 770.426,793.945 770.426,836.025 
		877.997,836.025 877.997,848.821 	"/>
	<g>
		<g>
			<rect x="1034.796" y="802.961" fill="#272525" width="2.258" height="24.049"/>
		</g>
		<g>
			<rect x="1028.925" y="802.961" fill="#2B2B2B" width="2.258" height="24.049"/>
		</g>
		<g>
			<rect x="1023.053" y="802.961" fill="#424243" width="2.258" height="24.049"/>
		</g>
		<g>
			<rect x="1017.182" y="802.961" fill="#565758" width="2.258" height="24.049"/>
		</g>
		<g>
			<rect x="1011.311" y="802.961" fill="#69696A" width="2.257" height="24.049"/>
		</g>
		<g>
			<rect x="1005.438" y="802.961" fill="#7A7C7D" width="2.258" height="24.049"/>
		</g>
		<g>
			<rect x="999.566" y="802.961" fill="#8E9091" width="2.258" height="24.049"/>
		</g>
		<g>
			<rect x="993.695" y="802.961" fill="#A3A5A6" width="2.258" height="24.049"/>
		</g>
		<g>
			<rect x="987.823" y="802.961" fill="#B8B9BA" width="2.259" height="24.049"/>
		</g>
		<g>
			<rect x="981.952" y="802.961" fill="#CECECF" width="2.258" height="24.049"/>
		</g>
		<g>
			<rect x="976.08" y="802.961" fill="#D8D9D9" width="2.258" height="24.049"/>
		</g>
		<g>
			<rect x="970.209" y="802.961" fill="#DEDFDF" width="2.258" height="24.049"/>
		</g>
		<g>
			<rect x="964.338" y="802.961" fill="#E1E2E2" width="2.258" height="24.049"/>
		</g>
		<g>
			<polygon fill="#272525" points="1037.287,835.757 1033.545,835.757 1048.801,814.985 1033.545,794.215 1037.287,794.215 
				1052.543,814.985 			"/>
		</g>
		<g>
			<polygon fill="#272525" points="1046.883,835.757 1043.141,835.757 1058.396,814.985 1043.141,794.215 1046.883,794.215 
				1062.139,814.985 			"/>
		</g>
	</g>
	<g>
		<path fill="#000100" d="M335.36,941.512l-60.5-37.794l9.782,37.794l-9.782,37.794L335.36,941.512z M284.437,916.774l39.598,24.737
			l-39.599,24.737l6.402-24.737L284.437,916.774z"/>
		<polygon fill="#000100" points="316.085,941.512 293.744,927.555 297.356,941.512 293.744,955.468 		"/>
	</g>
	<g>
		<polygon fill="#272525" points="158.039,911.95 152.713,911.95 174.425,941.512 152.713,971.072 158.039,971.072 179.751,941.512 
					"/>
		<polygon fill="#272525" points="151.84,919.24 147.828,919.24 164.186,941.512 147.828,963.783 151.84,963.783 168.198,941.512 		
			"/>
		<polygon fill="#272525" points="147.103,926.656 144.426,926.656 148.447,932.131 51.709,932.131 51.709,950.893 148.447,950.893 
			144.426,956.365 147.103,956.365 158.013,941.512 		"/>
		<polygon fill="#272525" points="173.578,919.24 169.566,919.24 185.923,941.512 169.566,963.783 173.578,963.783 189.936,941.512 
					"/>
	</g>
	<path fill="#272525" d="M1066.481,938.33l-19.164-19.164c-1.756-1.758-4.607-1.758-6.363,0c-1.758,1.757-1.758,4.606,0,6.363
		l11.481,11.482h-9.962l-17.846-17.846c-1.756-1.758-4.607-1.758-6.363,0c-1.758,1.757-1.758,4.606,0,6.363l11.481,11.482h-66.57
		c-2.485,0-4.5,2.015-4.5,4.5s2.015,4.5,4.5,4.5h66.57l-11.481,11.482c-1.758,1.757-1.758,4.606,0,6.363
		c0.878,0.879,2.03,1.318,3.182,1.318s2.304-0.439,3.182-1.318l17.846-17.846h9.962l-11.481,11.482
		c-1.758,1.757-1.758,4.606,0,6.363c0.878,0.879,2.03,1.318,3.182,1.318s2.304-0.439,3.182-1.318l19.164-19.164
		C1068.239,942.937,1068.239,940.087,1066.481,938.33z"/>
	<path fill="#000100" d="M348.129,1065.076l23.2-18.15l-23.2-18.15l0,0l0,0l0,0l0,0c-0.002,0.002-17.161,14.655-109.239,14.655v6.99
		C330.955,1050.421,348.122,1065.07,348.129,1065.076L348.129,1065.076L348.129,1065.076L348.129,1065.076L348.129,1065.076z"/>
	<path fill="#272525" d="M704.153,1034.361l-20.879-20.88c-0.856-0.857-2.146-1.117-3.27-0.65c-1.121,0.464-1.852,1.558-1.852,2.771
		v13.88h-18.967c-24.685,0-44.767,20.083-44.767,44.768c0,3.866,3.134,7,7,7s7-3.134,7-7c0-16.965,13.802-30.768,30.767-30.768
		h18.967v13.879c0,1.214,0.73,2.308,1.852,2.771c0.371,0.154,0.762,0.229,1.147,0.229c0.781,0,1.549-0.305,2.122-0.879
		l20.879-20.879C705.325,1037.433,705.325,1035.533,704.153,1034.361z"/>
	<g>
		<path fill="#000100" d="M477.399,1009.133l9.782,37.793l-9.782,37.793l60.501-37.793L477.399,1009.133z M493.379,1046.926
			l-6.402-24.737l39.599,24.737l-39.599,24.736L493.379,1046.926z"/>
		<polygon fill="#000100" points="446.923,1032.969 424.581,1046.926 446.923,1060.883 482.188,1046.926 		"/>
	</g>
	<g>
		<polygon fill="#272525" points="900.688,1062.6 770.262,1062.6 777.616,1046.926 770.262,1031.252 900.688,1031.252 
			908.043,1046.926 		"/>
	</g>
	<g>
		<polygon fill="#272525" points="1051.976,1036.938 1037.303,1056.914 1040.902,1056.914 1055.574,1036.938 		"/>
		<polygon fill="#272525" points="1042.432,1036.938 1027.76,1056.914 1031.358,1056.914 1046.031,1036.938 		"/>
		<polygon fill="#272525" points="1032.889,1036.938 1018.216,1056.914 1021.814,1056.914 1036.487,1036.938 		"/>
		<polygon fill="#272525" points="1023.345,1036.938 1008.672,1056.914 1012.271,1056.914 1026.943,1036.938 		"/>
		<polygon fill="#272525" points="1013.801,1036.938 999.129,1056.914 1002.728,1056.914 1017.4,1036.938 		"/>
		<polygon fill="#272525" points="1004.258,1036.938 989.585,1056.914 993.185,1056.914 1007.856,1036.938 		"/>
		<polygon fill="#272525" points="994.714,1036.938 980.042,1056.914 983.641,1056.914 998.313,1036.938 		"/>
		<polygon fill="#272525" points="985.17,1036.938 970.498,1056.914 974.098,1056.914 988.77,1036.938 		"/>
		<polygon fill="#272525" points="975.627,1036.938 960.955,1056.914 964.554,1056.914 979.227,1036.938 		"/>
		<polygon fill="#272525" points="966.083,1036.938 951.411,1056.914 955.01,1056.914 969.683,1036.938 		"/>
		<polygon fill="#272525" points="1061.52,1036.938 1046.847,1056.914 1075.065,1046.926 		"/>
	</g>
	<g>
		<path fill="#272525" d="M135.351,1022.813c2.727,0,4.944-2.217,4.944-4.943s-2.218-4.945-4.944-4.945
			c-2.726,0-4.944,2.219-4.944,4.945S132.625,1022.813,135.351,1022.813z"/>
		<path fill="#272525" d="M145.037,1032.498c2.727,0,4.944-2.217,4.944-4.943s-2.218-4.945-4.944-4.945s-4.944,2.219-4.944,4.945
			S142.311,1032.498,145.037,1032.498z"/>
		<path fill="#272525" d="M154.723,1042.184c2.726,0,4.944-2.217,4.944-4.943s-2.218-4.943-4.944-4.943
			c-2.727,0-4.944,2.217-4.944,4.943S151.997,1042.184,154.723,1042.184z"/>
		<path fill="#272525" d="M164.408,1041.981c-2.726,0-4.944,2.218-4.944,4.944s2.218,4.945,4.944,4.945
			c2.727,0,4.945-2.219,4.945-4.945S167.135,1041.981,164.408,1041.981z"/>
		<path fill="#272525" d="M154.723,1051.668c-2.727,0-4.944,2.217-4.944,4.943s2.218,4.945,4.944,4.945
			c2.726,0,4.944-2.219,4.944-4.945S157.449,1051.668,154.723,1051.668z"/>
		<path fill="#272525" d="M145.037,1061.354c-2.727,0-4.944,2.219-4.944,4.943c0,2.727,2.218,4.945,4.944,4.945
			s4.944-2.219,4.944-4.945C149.981,1063.572,147.764,1061.354,145.037,1061.354z"/>
		<path fill="#272525" d="M135.351,1071.039c-2.726,0-4.944,2.219-4.944,4.945c0,2.725,2.218,4.943,4.944,4.943
			c2.727,0,4.944-2.219,4.944-4.943C140.295,1073.258,138.078,1071.039,135.351,1071.039z"/>
		<path fill="#272525" d="M115.979,1022.813c2.726,0,4.944-2.217,4.944-4.943s-2.218-4.945-4.944-4.945s-4.944,2.219-4.944,4.945
			S113.253,1022.813,115.979,1022.813z"/>
		<path fill="#272525" d="M125.666,1032.498c2.726,0,4.944-2.217,4.944-4.943s-2.218-4.945-4.944-4.945
			c-2.727,0-4.944,2.219-4.944,4.945S122.939,1032.498,125.666,1032.498z"/>
		<path fill="#272525" d="M135.351,1042.184c2.727,0,4.944-2.217,4.944-4.943s-2.218-4.943-4.944-4.943
			c-2.726,0-4.944,2.217-4.944,4.943S132.625,1042.184,135.351,1042.184z"/>
		<path fill="#272525" d="M145.037,1051.871c2.727,0,4.944-2.219,4.944-4.945s-2.218-4.944-4.944-4.944s-4.944,2.218-4.944,4.944
			S142.311,1051.871,145.037,1051.871z"/>
		<path fill="#272525" d="M135.351,1061.557c2.727,0,4.944-2.219,4.944-4.945s-2.218-4.943-4.944-4.943
			c-2.726,0-4.944,2.217-4.944,4.943S132.625,1061.557,135.351,1061.557z"/>
		<path fill="#272525" d="M125.666,1061.354c-2.727,0-4.944,2.219-4.944,4.943c0,2.727,2.218,4.945,4.944,4.945
			c2.726,0,4.944-2.219,4.944-4.945C130.609,1063.572,128.392,1061.354,125.666,1061.354z"/>
		<path fill="#272525" d="M115.979,1071.039c-2.726,0-4.944,2.219-4.944,4.945c0,2.725,2.218,4.943,4.944,4.943
			s4.944-2.219,4.944-4.943C120.924,1073.258,118.706,1071.039,115.979,1071.039z"/>
		<path fill="#272525" d="M96.608,1022.813c2.727,0,4.944-2.217,4.944-4.943s-2.218-4.945-4.944-4.945
			c-2.726,0-4.944,2.219-4.944,4.945S93.882,1022.813,96.608,1022.813z"/>
		<path fill="#272525" d="M106.294,1032.498c2.726,0,4.944-2.217,4.944-4.943s-2.218-4.945-4.944-4.945s-4.944,2.219-4.944,4.945
			S103.568,1032.498,106.294,1032.498z"/>
		<path fill="#272525" d="M115.979,1042.184c2.726,0,4.944-2.217,4.944-4.943s-2.218-4.943-4.944-4.943s-4.944,2.217-4.944,4.943
			S113.253,1042.184,115.979,1042.184z"/>
		<path fill="#272525" d="M125.666,1051.871c2.726,0,4.944-2.219,4.944-4.945s-2.218-4.944-4.944-4.944
			c-2.727,0-4.944,2.218-4.944,4.944S122.939,1051.871,125.666,1051.871z"/>
		<path fill="#272525" d="M115.979,1061.557c2.726,0,4.944-2.219,4.944-4.945s-2.218-4.943-4.944-4.943s-4.944,2.217-4.944,4.943
			S113.253,1061.557,115.979,1061.557z"/>
		<path fill="#272525" d="M106.294,1061.354c-2.726,0-4.944,2.219-4.944,4.943c0,2.727,2.218,4.945,4.944,4.945
			s4.944-2.219,4.944-4.945C111.238,1063.572,109.02,1061.354,106.294,1061.354z"/>
		<path fill="#272525" d="M96.608,1071.039c-2.726,0-4.944,2.219-4.944,4.945c0,2.725,2.218,4.943,4.944,4.943
			c2.727,0,4.944-2.219,4.944-4.943C101.552,1073.258,99.334,1071.039,96.608,1071.039z"/>
		<path fill="#272525" d="M77.236,1022.813c2.726,0,4.944-2.217,4.944-4.943s-2.218-4.945-4.944-4.945s-4.944,2.219-4.944,4.945
			S74.51,1022.813,77.236,1022.813z"/>
		<path fill="#272525" d="M86.922,1032.498c2.726,0,4.944-2.217,4.944-4.943s-2.218-4.945-4.944-4.945
			c-2.727,0-4.944,2.219-4.944,4.945S84.196,1032.498,86.922,1032.498z"/>
		<path fill="#272525" d="M96.608,1042.184c2.727,0,4.944-2.217,4.944-4.943s-2.218-4.943-4.944-4.943
			c-2.726,0-4.944,2.217-4.944,4.943S93.882,1042.184,96.608,1042.184z"/>
		<path fill="#272525" d="M106.294,1051.871c2.726,0,4.944-2.219,4.944-4.945s-2.218-4.944-4.944-4.944s-4.944,2.218-4.944,4.944
			S103.568,1051.871,106.294,1051.871z"/>
		<path fill="#272525" d="M96.608,1061.557c2.727,0,4.944-2.219,4.944-4.945s-2.218-4.943-4.944-4.943
			c-2.726,0-4.944,2.217-4.944,4.943S93.882,1061.557,96.608,1061.557z"/>
		<path fill="#272525" d="M86.922,1061.354c-2.727,0-4.944,2.219-4.944,4.943c0,2.727,2.218,4.945,4.944,4.945
			c2.726,0,4.944-2.219,4.944-4.945C91.866,1063.572,89.648,1061.354,86.922,1061.354z"/>
		<path fill="#272525" d="M77.236,1071.039c-2.726,0-4.944,2.219-4.944,4.945c0,2.725,2.218,4.943,4.944,4.943
			s4.944-2.219,4.944-4.943C82.181,1073.258,79.962,1071.039,77.236,1071.039z"/>
	</g>
	<g>
		<g>
			<circle fill="#272525" cx="659.726" cy="458.26" r="45.395"/>
		</g>
		<path fill="#FFFFFF" d="M691.018,458.26l-32.569-32.57v21.07h-42.644c-0.96,3.673-1.474,7.526-1.474,11.5
			c0,3.974,0.514,7.827,1.474,11.5h42.644v21.07L691.018,458.26z"/>
	</g>
	<path fill="#272525" d="M531.556,935.146l-27.134-27.133c-3.515-3.514-9.213-3.514-12.728,0s-3.514,9.213,0,12.729l6.27,6.27
		h-55.175c-8.009,0-14.5,6.492-14.5,14.5s6.491,14.5,14.5,14.5h55.175l-6.27,6.27c-3.515,3.514-3.516,9.213,0,12.729
		c1.758,1.756,4.06,2.635,6.364,2.635c2.303,0,4.607-0.879,6.364-2.635l27.134-27.135c1.688-1.688,2.636-3.978,2.636-6.363
		C534.192,939.125,533.244,936.836,531.556,935.146z M442.789,950.543c-4.988,0-9.033-4.043-9.033-9.031s4.044-9.033,9.033-9.033
		s9.032,4.045,9.032,9.033S447.777,950.543,442.789,950.543z"/>
	<path fill="#272525" d="M735.492,940.043l-8.539-8.537c-0.857-0.857-2.146-1.117-3.27-0.65c-1.121,0.463-1.852,1.559-1.852,2.771
		v6.57l-18.215,0.068l-0.002-0.16l0.002-0.003v-1.312c0-0.084-0.011-0.166-0.013-0.249l-0.001-0.11h-0.005
		c-0.191-5.056-4.353-9.112-9.454-9.112c-5.224,0-9.473,4.249-9.473,9.472v3.472c0,3.017-2.455,5.472-5.473,5.472
		s-5.473-2.455-5.473-5.472v-3.472c0-5.223-4.25-9.472-9.473-9.472c-5.224,0-9.473,4.249-9.473,9.472v3.472
		c0,3.017-2.455,5.472-5.472,5.472c-3.019,0-5.473-2.455-5.473-5.472v-3.472c0-5.223-4.249-9.472-9.474-9.472
		c-5.223,0-9.472,4.249-9.472,9.472v3.472c0,3.017-2.456,5.472-5.474,5.472c-3.017,0-5.472-2.455-5.472-5.472v-3.843
		c0-0.532-0.212-1.042-0.589-1.417c-0.375-0.373-0.882-0.583-1.411-0.583c-0.003,0-0.005,0-0.008,0l-26.866,0.102
		c-1.104,0.004-1.996,0.903-1.992,2.008c0.004,1.102,0.899,1.992,2,1.992c0.002,0,0.006,0,0.009,0l24.857-0.094v1.835
		c0,5.223,4.249,9.472,9.472,9.472c5.225,0,9.474-4.249,9.474-9.472v-3.472c0-3.018,2.455-5.472,5.472-5.472
		c3.018,0,5.474,2.454,5.474,5.472v3.472c0,5.223,4.249,9.472,9.473,9.472c5.222,0,9.472-4.249,9.472-9.472v-3.472
		c0-3.018,2.455-5.472,5.473-5.472s5.473,2.454,5.473,5.472v3.472c0,5.223,4.249,9.472,9.473,9.472c5.223,0,9.473-4.249,9.473-9.472
		v-3.472c0-3.018,2.455-5.472,5.473-5.472c2.928,0,5.319,2.313,5.459,5.206v3.748c0,0.533,0.212,1.043,0.589,1.418
		c0.375,0.372,0.882,0.582,1.411,0.582c0.003,0,0.005,0,0.008,0l20.221-0.076v6.506c0,1.215,0.73,2.309,1.852,2.771
		c0.371,0.154,0.762,0.229,1.147,0.229c0.781,0,1.549-0.305,2.122-0.879l8.539-8.539c0.563-0.563,0.879-1.324,0.879-2.121
		C736.371,941.369,736.055,940.605,735.492,940.043z"/>
	<g>
		<polygon fill="none" points="807.8,927.854 807.8,955.168 826.247,941.512 		"/>
		<polygon fill="none" points="807.8,911.123 807.8,919.838 837.076,941.512 807.8,963.185 807.8,971.9 848.85,941.512 		"/>
		<polygon fill="#272525" points="848.85,941.512 807.8,971.9 807.8,987.931 870.504,941.512 807.8,895.093 807.8,911.123 		"/>
		<polygon fill="#272525" points="807.8,919.838 807.8,927.854 826.247,941.512 807.8,955.168 807.8,963.185 837.076,941.512 		"/>
	</g>
</g>
</svg>
