<?xml version="1.0" encoding="utf-8"?>
<!-- Generator: Adobe Illustrator 25.3.1, SVG Export Plug-In . SVG Version: 6.00 Build 0)  -->
<svg version="1.1" id="Layer_1" xmlns="http://www.w3.org/2000/svg" xmlns:xlink="http://www.w3.org/1999/xlink" x="0px" y="0px"
	 viewBox="0 0 1378.9 491.9" style="enable-background:new 0 0 1378.9 491.9;" xml:space="preserve">
<style type="text/css">
	.st0{fill:#001454;}
	.st1{fill:#009EFF;}
</style>
<g>
	<path class="st0" d="M489.1,344V187.5c0.1-22.3,18.2-40.4,40.5-40.5h115.8c10.8-0.1,21.2,4.2,28.7,12c7.8,7.4,12.2,17.8,12,28.6
		v156.5h-42.9v-63.6H531.5v63.6L489.1,344z M531.5,237.9h111.6v-48.1H531.5V237.9z"/>
	<path class="st0" d="M717.8,344V147h156.3c10.8-0.1,21.1,4.2,28.6,12c7.8,7.4,12.2,17.8,12.1,28.6v116c0.2,10.8-4.2,21.2-12.1,28.6
		c-7.5,7.7-17.9,12-28.6,11.8H717.8z M769.2,301.3h102.6V189.7H760.2v111.6H769.2z"/>
	<path class="st0" d="M945.9,344V147h181.9v42.7h-139v34.5h111.9v42.7H988.9v34.5h139V344H945.9z"/>
	<path class="st0" d="M1154.9,344V147h43.7l110.2,131.3V147h43V344h-43.8l-110.8-131.8V344H1154.9z"/>
</g>
<g>
	<path class="st0" d="M232.9,22.8L232.9,22.8c123,0,222.7,99.7,222.7,222.7l0,0c0,123-99.7,222.7-222.7,222.7l0,0
		c-123,0-222.7-99.7-222.7-222.7l0,0C10.2,122.6,109.9,22.8,232.9,22.8z"/>
	<path class="st1" d="M235.7,352.9h-81.2c-29.6,0-53.7-23.9-53.7-53.6c0-9.7,2.6-19.3,7.6-27.6l12.1-20.3h19.8l-17.3,29
		c-10.4,17.4-4.8,39.9,12.6,50.3c1.6,1,3.3,1.8,5.1,2.5l0,0c4.4,1.8,9.1,2.7,13.9,2.7h14l25.4-42.4h78.3l7.4,12.4l18.4,30h13.5
		c20.3,0,36.8-16.5,36.8-36.8l0,0c0-6.6-1.8-13.1-5.2-18.8l-32.5-54.5h-49.3l-28.3-47.4l-43.5,72.9H219l13.9-23.3l13.9,23.3
		l49.3-0.1l25.1,42.1c1.1,1.7,1.6,3.7,1.6,5.8l0,0c0,6.1-4.8,11.1-11,11.4l-25.2-42.3l-0.1,0.1l0-0.1h-107l-25.3,42.3
		c-6.2-0.2-11.1-5.2-11.1-11.4c0-2,0.6-4,1.6-5.8l40.2-67.5h-78.9l-19.5,32.8c-22.4,37.5-10.2,86,27.3,108.4
		c12.3,7.3,26.3,11.2,40.7,11.2h95.7L235.7,352.9z"/>
	<path class="st1" d="M194.4,99.4c-12.6,6.9-23.1,17.1-30.4,29.4l-47.9,80.3H195l27.2-45.7c3.5-5.9,11.2-7.9,17.2-4.4
		c1.8,1.1,3.3,2.6,4.4,4.4l27.2,45.6l49.2-0.1l37.4,62.7c5,8.3,7.6,17.8,7.6,27.5l0,0c0,29.7-24.1,53.7-53.7,53.7h-25l-25.2-42.4
		h-56.4L190.3,336h56.5l25.1,42.4h39.5c43.7,0,79.1-35.5,79.1-79.1l0,0c0-14.3-3.9-28.2-11.2-40.5l-44.8-75.1h-49.3l-19.8-33.1
		c-10.7-18-34-23.9-52-13.2c-5.4,3.2-10,7.8-13.2,13.2l-19.8,33.1h-19.7l24.9-41.8c15.5-26,49.1-34.6,75.2-19.1
		c7.9,4.7,14.5,11.3,19.1,19.1l14.9,25h29.6l-22.6-38C279.8,91.7,232.3,78.8,194.4,99.4z"/>
</g>
</svg>
